# xmcd
#
# Track frame offsets:
#	150
#	22817
#	47989
#	75033
#	91371
#	118245
#	138918
#	153436
#	178856
#	209137
#	229946
#	252497
#	273033
#	292364
#	311896
#
# Disc length: 4363 seconds
#
# Revision: 1
# Processed by: cddbd v1.5.2PL0 Copyright (c) Steve Scherf et al.
# Submitted via: audiograbber 1.83.01
#
DISCID=db11090f
DTITLE=Various Artist - New Orleans Festival, Innsbruck 2006
DYEAR=2006
DGENRE=Blues
TTITLE0=Chucky C. and Clearly Blue - Next time
TTITLE1=Chucky C. and Clearly Blue - Teeny weeny bit
TTITLE2=The Marc Stone Band - I can't hold you out
TTITLE3=Die Erben - Klavier zu leise
TTITLE4=Ratamacue - Set it on fire
TTITLE5=Chary Augschöll Hotline - Dumbogo
TTITLE6=Gail Anderson - Lean on me
TTITLE7=Roland and the Experience - Born again human
TTITLE8=Ratamacue - Drahtanit
TTITLE9=Helga Plankensteiner - Walter Civettini Quintett - Connections
TTITLE10=Die Erben - Vorerst Bruckner
TTITLE11=Stompin' Howie - It's all over now
TTITLE12=The Marc Stone Band - Drunk show
TTITLE13=Helga Plankensteiner - Walter Civettini Quintett - Beppechan
TTITLE14=Gail Anderson - Oh happy day
EXTD=
EXTT0=
EXTT1=
EXTT2=
EXTT3=
EXTT4=
EXTT5=
EXTT6=
EXTT7=
EXTT8=
EXTT9=
EXTT10=
EXTT11=
EXTT12=
EXTT13=
EXTT14=
PLAYORDER=
